Coordinates
version=1
nRows=13
nColumns=27
inDegrees=yes

Units are S.I. units (second, meters, Newtons, ...)
If the header above contains a line with 'inDegrees', this indicates whether rotational values are in degrees (yes) or radians (no).

endheader
time	pelvis_rotation	pelvis_tilt	pelvis_list	pelvis_tx	pelvis_ty	pelvis_tz	hip_flexion_r	hip_adduction_r	hip_rotation_r	knee_angle_r	knee_rotation_r	knee_adduction_r	knee_angle_r_beta	ankle_angle_r	subtalar_angle_r	mtp_angle_r	hip_flexion_l	hip_adduction_l	hip_rotation_l	knee_angle_l	knee_rotation_l	knee_adduction_l	knee_angle_l_beta	ankle_angle_l	subtalar_angle_l	mtp_angle_l
     11.05500000	      4.51676370	    -19.48557249	      4.31116669	     -0.05010052	      0.89715595	     -1.20370245	     39.83004155	    -14.84914471	    -27.93937529	     28.32130024	      0.00000000	      8.81335039	      0.49429994	      3.85722838	      0.00000000	      0.00000000	     37.53884687	     -3.22468457	    -17.84567697	     19.52295658	      0.00000000	     -6.94850411	      0.34073987	     -2.66817830	      0.00000000	      0.00000000
     11.06000000	      3.38238487	    -20.51445332	      5.00250420	     -0.05230729	      0.89647857	     -1.20353922	     41.91636186	    -14.85196066	    -25.12676771	     29.08835558	      0.00000000	      7.73367024	      0.50768758	      4.03220077	      0.00000000	      0.00000000	     38.47935978	     -3.05697943	    -18.77540059	     19.61401308	      0.00000000	     -6.18593136	      0.34232911	     -2.68517705	      0.00000000	      0.00000000
     11.06500000	      4.59765587	    -17.95779164	      3.58265628	     -0.04557450	      0.89876650	     -1.20300852	     37.03939548	    -13.96916038	    -29.01423127	     26.84595760	      0.00000000	      8.87736710	      0.46855035	      3.54013214	      0.00000000	      0.00000000	     35.36733919	     -3.65976916	    -17.42170323	     18.76872715	      0.00000000	     -7.00402042	      0.32757609	     -2.73423333	      0.00000000	      0.00000000
     11.07000000	      4.59140025	    -17.25620021	      3.23582656	     -0.04343287	      0.89949881	     -1.20264383	     35.76255391	    -13.50507298	    -29.43045386	     26.13547299	      0.00000000	      8.89588155	      0.45615006	      3.36658656	      0.00000000	      0.00000000	     34.36445015	     -3.90206938	    -17.26716801	     18.43606008	      0.00000000	     -7.00339899	      0.32176995	     -2.75923730	      0.00000000	      0.00000000
     11.07500000	      4.58577745	    -16.58447376	      2.99465812	     -0.04138118	      0.90016709	     -1.20239953	     34.58290728	    -13.15511480	    -29.78685931	     25.51356768	      0.00000000	      8.90745549	      0.44529576	      3.23981063	      0.00000000	      0.00000000	     33.37631085	     -4.04140957	    -17.12825256	     18.07751157	      0.00000000	     -7.00401651	      0.31551210	     -2.78691186	      0.00000000	      0.00000000
     11.08000000	      4.55351367	    -15.91008392	      2.71844379	     -0.03930942	      0.90082787	     -1.20211140	     33.39213508	    -12.74250855	    -30.11241378	     24.85320302	      0.00000000	      8.92160788	      0.43377022	      3.08193248	      0.00000000	      0.00000000	     32.39164527	     -4.23554194	    -17.01562365	     17.73884898	      0.00000000	     -7.00468271	      0.30960132	     -2.80387320	      0.00000000	      0.00000000
     11.08500000	      4.39595832	    -15.24855430	      2.52280767	     -0.03726378	      0.90143833	     -1.20184789	     32.29762902	    -12.36780619	    -30.22535950	     24.26117667	      0.00000000	      8.92029215	      0.42343741	      2.93468311	      0.00000000	      0.00000000	     31.38156844	     -4.40608984	    -17.09489703	     17.38216925	      0.00000000	     -7.00149132	      0.30337608	     -2.83547089	      0.00000000	      0.00000000
     11.09000000	      4.43837049	    -14.67644320	      2.22096628	     -0.03534503	      0.90201731	     -1.20155400	     31.21086496	    -11.93525788	    -30.58628152	     23.59643919	      0.00000000	      8.92760206	      0.41183556	      2.79613377	      0.00000000	      0.00000000	     30.58278305	     -4.62163667	    -16.88250133	     17.15525682	      0.00000000	     -6.98996648	      0.29941572	     -2.81660981	      0.00000000	      0.00000000
     11.09500000	      3.88576624	    -15.07004431	      2.32351990	     -0.03596222	      0.90194177	     -1.20119325	     31.88891954	    -11.71636985	    -29.10723595	     23.70165737	      0.00000000	      8.03203180	      0.41367196	      2.83024032	      0.00000000	      0.00000000	     30.91147873	     -4.67553162	    -16.86623283	     17.17392572	      0.00000000	     -6.26478585	      0.29974155	     -2.84280786	      0.00000000	      0.00000000
     11.10000000	      4.29262278	    -13.51564673	      1.87277800	     -0.03162761	      0.90307541	     -1.20114767	     29.23254596	    -11.28199398	    -30.90537209	     22.49086453	      0.00000000	      8.92627424	      0.39253964	      2.55299361	      0.00000000	      0.00000000	     28.83278621	     -4.87614409	    -16.75450368	     16.54515895	      0.00000000	     -6.89509701	      0.28876750	     -2.85957375	      0.00000000	      0.00000000
     11.10500000	      4.29938755	    -13.00081140	      1.68595266	     -0.02975387	      0.90357096	     -1.20096510	     28.27783101	    -10.96100664	    -31.16973576	     21.90343868	      0.00000000	      8.92309469	      0.38228712	      2.40692284	      0.00000000	      0.00000000	     28.07649905	     -5.01410799	    -16.66790499	     16.30666516	      0.00000000	     -6.87137327	      0.28460500	     -2.86423500	      0.00000000	      0.00000000
     11.11000000	      4.20104075	    -12.50996139	      1.54424030	     -0.02809035	      0.90399313	     -1.20080625	     27.45638129	    -10.68024608	    -31.26529693	     21.46108458	      0.00000000	      8.93908202	      0.37456659	      2.30309489	      0.00000000	      0.00000000	     27.31504997	     -5.12350361	    -16.59333999	     16.03751981	      0.00000000	     -6.77217456	      0.27990752	     -2.87074014	      0.00000000	      0.00000000
     11.11500000	      4.13837869	    -12.00515766	      1.36274226	     -0.02631643	      0.90445260	     -1.20059567	     26.55106573	    -10.33178769	    -31.38781784	     20.88738776	      0.00000000	      8.92749945	      0.36455369	      2.15704511	      0.00000000	      0.00000000	     26.55780177	     -5.27926589	    -16.56987317	     15.79537707	      0.00000000	     -6.75726587	      0.27568134	     -2.87092191	      0.00000000	      0.00000000
